<!-- Generated by IcoMoon.io -->
<svg version="1.1" xmlns="http://www.w3.org/2000/svg" width="736" height="512" viewBox="0 0 736 512">
<title>svgg04</title>
<path d="M712.8 442.944h-67.68c-10.656 39.648-46.432 69.056-89.248 69.056s-78.592-29.408-89.248-69.056h-138.496c-10.656 39.648-46.432 69.056-89.248 69.056s-78.592-29.408-89.216-69.056h-60.768c-12.8 0-23.168-10.4-23.168-23.264s10.368-23.264 23.168-23.264h60.288c10.080-40.448 46.304-70.592 89.696-70.592s79.648 30.144 89.728 70.592h137.536c10.080-40.448 46.336-70.592 89.728-70.592s79.616 30.144 89.696 70.592h44.032v-120.032l-33.76-43.648h-180.384c-12.8 0-23.2-10.432-23.2-23.296v-162.912h-363.36c-12.8 0-23.168-10.4-23.168-23.264 0-12.832 10.368-23.264 23.168-23.264h386.56c12.832 0 23.2 10.432 23.2 23.264v23.296h98.944c8.768 0 16.8 4.928 20.736 12.8l69.568 138.848-0.032 0.032 43.264 55.904c3.136 4.064 4.864 9.088 4.864 14.272v151.264c0 12.864-10.4 23.264-23.2 23.264zM238.88 372.352c-25.568 0-46.368 20.896-46.368 46.56s20.8 46.528 46.368 46.528c25.6 0 46.4-20.864 46.4-46.528s-20.8-46.56-46.4-46.56zM555.872 372.352c-25.6 0-46.4 20.896-46.4 46.56s20.8 46.528 46.4 46.528c25.568 0 46.368-20.864 46.368-46.528s-20.8-46.56-46.368-46.56zM583.296 93.088h-84.64v93.088h131.296l-46.656-93.088zM282.176 118.688c0 12.864-10.368 23.264-23.2 23.264h-197.888c-12.832 0-23.2-10.4-23.2-23.264s10.368-23.264 23.2-23.264h197.888c12.832 0 23.2 10.4 23.2 23.264zM244.288 210.24c0 12.832-10.368 23.264-23.168 23.264h-197.92c-12.832 0-23.2-10.432-23.2-23.264 0-12.864 10.368-23.296 23.2-23.296h197.92c12.8 0 23.168 10.432 23.168 23.296zM61.088 278.496h106.688c12.8 0 23.168 10.4 23.168 23.264s-10.368 23.264-23.168 23.264h-106.688c-12.832 0-23.2-10.4-23.2-23.264s10.368-23.264 23.2-23.264z"></path>
</svg>
