<!-- Generated by IcoMoon.io -->
<svg version="1.1" xmlns="http://www.w3.org/2000/svg" width="546" height="512" viewBox="0 0 546 512">
<title>svgg01</title>
<path d="M428.135 479.437c-65.092 0-117.999-48.913-117.999-108.988 0-60.109 52.906-108.988 117.999-108.988 65.058 0 117.999 48.879 117.999 108.988 0 60.075-52.941 108.988-117.999 108.988zM428.135 318.908c-30.754 0-55.774 23.108-55.774 51.541 0 28.399 25.019 51.507 55.774 51.507s55.774-23.108 55.774-51.507c0-28.433-25.019-51.541-55.774-51.541zM184.388 496.264c-5.495 9.967-16.418 15.736-27.75 15.736-4.744 0-9.558-1.024-14.063-3.14-15.326-7.202-21.436-24.507-13.654-38.639l231.424-420.352c7.783-14.166 26.522-19.797 41.813-12.595 15.326 7.168 21.435 24.474 13.654 38.639l-231.424 420.352zM117.999 284.672c-65.058 0-117.999-48.879-117.999-108.988 0-60.075 52.941-108.987 117.999-108.987s117.999 48.913 117.999 108.987c0 60.109-52.941 108.988-117.999 108.988zM117.999 124.177c-30.754 0-55.774 23.109-55.774 51.507s25.019 51.507 55.774 51.507c30.754 0 55.774-23.108 55.774-51.507s-25.019-51.507-55.774-51.507z"></path>
</svg>
