<!-- Generated by IcoMoon.io -->
<svg version="1.1" xmlns="http://www.w3.org/2000/svg" width="512" height="512" viewBox="0 0 512 512">
<title>svgg03</title>
<path d="M497.664 270.336h-64.979c-7.921 0-14.351-6.415-14.351-14.336s6.43-14.351 14.351-14.351h64.979c7.921 0 14.336 6.43 14.336 14.351s-6.43 14.336-14.336 14.336zM472.455 147.591l-56.275 32.482c-2.259 1.31-4.728 1.928-7.153 1.928-4.954 0-9.773-2.575-12.438-7.168-3.961-6.867-1.611-15.631 5.255-19.591l56.26-32.497c6.867-3.96 15.631-1.596 19.591 5.255s1.611 15.631-5.24 19.591zM384 477.696c-2.259 1.31-4.728 1.928-7.153 1.928-4.969 0-9.788-2.575-12.438-7.168l-32.482-56.275c-3.961-6.867-1.611-15.631 5.24-19.591 6.867-3.961 15.631-1.611 19.591 5.255l32.497 56.26c3.961 6.867 1.611 15.631-5.255 19.591zM356.759 110.156c-2.651 4.608-7.469 7.168-12.438 7.168-2.425 0-4.894-0.618-7.153-1.912-6.852-3.96-9.201-12.74-5.24-19.591l32.482-56.275c3.961-6.852 12.724-9.201 19.591-5.255 6.867 3.961 9.216 12.74 5.255 19.592l-32.497 56.275zM256 512c-7.921 0-14.336-6.43-14.336-14.351v-64.964c0-7.921 6.415-14.351 14.336-14.351s14.336 6.43 14.336 14.351v64.964c0 7.921-6.415 14.351-14.336 14.351zM256 93.666c-7.921 0-14.336-6.43-14.336-14.351v-64.979c0-7.921 6.415-14.336 14.336-14.336s14.336 6.415 14.336 14.336v64.979c0 7.921-6.415 14.351-14.336 14.351zM147.591 472.455c-2.65 4.593-7.484 7.168-12.439 7.168-2.424 0-4.894-0.618-7.153-1.928-6.867-3.961-9.216-12.724-5.255-19.591l32.497-56.26c3.96-6.867 12.725-9.216 19.591-5.255 6.852 3.961 9.201 12.724 5.24 19.591l-32.482 56.275zM174.833 115.411c-2.259 1.295-4.728 1.927-7.153 1.927-4.97 0-9.788-2.575-12.439-7.183l-32.497-56.275c-3.96-6.852-1.612-15.631 5.255-19.592 6.852-3.945 15.631-1.596 19.591 5.255l32.482 56.275c3.96 6.852 1.612 15.631-5.24 19.591zM110.156 356.759l-56.275 32.482c-2.244 1.31-4.714 1.928-7.153 1.928-4.955 0-9.773-2.575-12.438-7.168-3.96-6.867-1.611-15.631 5.255-19.591l56.275-32.497c6.852-3.961 15.631-1.596 19.591 5.255s1.612 15.631-5.255 19.591zM102.972 182.001c-2.424 0-4.894-0.618-7.153-1.928l-56.275-32.482c-6.867-3.96-9.216-12.74-5.255-19.591 3.961-6.867 12.74-9.216 19.592-5.255l56.275 32.497c6.867 3.96 9.216 12.725 5.255 19.591-2.665 4.593-7.484 7.168-12.439 7.168zM93.666 256c0 7.921-6.43 14.336-14.351 14.336h-64.979c-7.921 0-14.336-6.415-14.336-14.336s6.415-14.351 14.336-14.351h64.979c7.921 0 14.351 6.43 14.351 14.351zM416.18 331.911l56.275 32.497c6.852 3.961 9.201 12.724 5.24 19.591-2.651 4.593-7.469 7.168-12.423 7.168-2.44 0-4.909-0.618-7.168-1.928l-56.26-32.482c-6.867-3.961-9.216-12.74-5.255-19.591s12.724-9.216 19.591-5.255z"></path>
</svg>
