<?xml version="1.0" encoding="utf-8"?>
<!-- Generator: Adobe Illustrator 19.0.0, SVG Export Plug-In . SVG Version: 6.00 Build 0)  -->
<svg version="1.1" id="Capa_1" xmlns="http://www.w3.org/2000/svg" xmlns:xlink="http://www.w3.org/1999/xlink" x="0px" y="0px"
	 viewBox="-244 122.1 351.1 351.1" style="enable-background:new -244 122.1 351.1 351.1;" xml:space="preserve">
<g>
	<g id="Clips_2_">
		<g>
			<path d="M80.6,164.8c-35.4-35.4-92.9-35.4-128.3,0l-176.4,176.4c-26.6,26.6-26.6,69.6,0,96.2c21.9,21.9,54.9,25.4,80.8,11.2
				c2.7-0.1,5.4-1.2,7.4-3.2L40.5,269.1c17.7-17.7,17.7-46.4,0-64.1s-46.4-17.7-64.1,0l-144.3,144.3c-4.4,4.4-4.4,11.6,0,16
				c4.4,4.4,11.6,4.4,16,0L-7.6,221c8.9-8.9,23.2-8.9,32.1,0c8.9,8.9,8.9,23.2,0,32.1l-168.4,168.4c-17.7,17.7-46.4,17.7-64.1,0
				s-17.7-46.4,0-64.1l176.4-176.4c26.6-26.6,69.6-26.6,96.2,0c26.6,26.6,26.6,69.6,0,96.2L-95.8,437.4c-4.4,4.4-4.4,11.6,0,16
				c4.4,4.4,11.6,4.4,16,0L80.6,293.1C116,257.7,116,200.3,80.6,164.8z"/>
		</g>
	</g>
</g>
</svg>
