<!-- Generated by IcoMoon.io -->
<svg version="1.1" xmlns="http://www.w3.org/2000/svg" width="512" height="512" viewBox="0 0 512 512">
<title>svg-04</title>
<path d="M352 512h-192c-88.344 0-160-71.656-160-160v-192c0-88.344 71.656-160 160-160h192c88.344 0 160 71.656 160 160v192c0 88.344-71.656 160-160 160zM463.988 160c0-61.766-50.223-112.011-111.988-112.011h-192c-61.766 0-112.011 50.246-112.011 112.011v192c0 61.766 50.246 111.988 112.011 111.988h192c61.766 0 111.988-50.223 111.988-111.988v-192zM393.589 135.447c-9.402 0-17.036-7.633-17.036-17.059 0-9.402 7.634-17.059 17.036-17.059 9.425 0 17.059 7.656 17.059 17.059 0 9.425-7.634 17.059-17.059 17.059zM256 384c-70.68 0-128-57.32-128-128s57.321-128 128-128c70.68 0 128 57.321 128 128s-57.32 128-128 128zM256 175.988c-44.102 0-80.012 35.887-80.012 80.012 0 44.102 35.91 79.988 80.012 79.988s79.988-35.887 79.988-79.988c0-44.125-35.887-80.012-79.988-80.012z"></path>
</svg>
