<!-- Generated by IcoMoon.io -->
<svg version="1.1" xmlns="http://www.w3.org/2000/svg" width="512" height="512" viewBox="0 0 512 512">
<title>svg-05</title>
<path d="M485.003 23.25h-434.781c-14.871 0-26.973 12.079-26.973 26.973v434.781c0 14.894 12.102 26.973 26.973 26.973h234.077v-189.254h-63.697v-73.774h63.697v-54.388c0-63.115 38.539-97.513 94.86-97.513 26.997 0 50.153 2.025 56.902 2.909v65.955l-39.051 0.024c-30.627 0-36.538 14.569-36.538 35.91v47.081h73.053l-9.542 73.774h-63.512v189.277h124.533c14.894 0 26.996-12.102 26.996-26.973v-434.781c-0.024-14.895-12.102-26.973-26.997-26.973z"></path>
</svg>
