<!-- Generated by IcoMoon.io -->
<svg version="1.1" xmlns="http://www.w3.org/2000/svg" width="512" height="512" viewBox="0 0 512 512">
<title>star</title>
<path d="M511.551 197.754c-1.082-3.317-3.95-5.737-7.405-6.241l-165.788-24.094-74.142-150.226c-1.539-3.134-4.729-5.114-8.212-5.114s-6.681 1.979-8.212 5.114l-74.151 150.236-165.788 24.094c-3.455 0.504-6.314 2.915-7.405 6.241-1.073 3.309-0.183 6.956 2.318 9.385l119.974 116.94-28.328 165.128c-0.587 3.437 0.825 6.91 3.638 8.963 2.832 2.071 6.58 2.337 9.65 0.697l148.302-77.954 148.284 77.954c1.338 0.705 2.813 1.054 4.271 1.054 1.897 0 3.785-0.587 5.389-1.75 2.822-2.053 4.234-5.526 3.639-8.963l-28.318-165.119 119.974-116.95c2.493-2.447 3.391-6.085 2.31-9.393z"></path>
</svg>
