<?xml version="1.0" encoding="utf-8"?>
<!-- Generator: Adobe Illustrator 19.0.0, SVG Export Plug-In . SVG Version: 6.00 Build 0)  -->
<svg version="1.1" id="Capa_1" xmlns="http://www.w3.org/2000/svg" xmlns:xlink="http://www.w3.org/1999/xlink" x="0px" y="0px"
	 viewBox="-205 83.2 430.1 430.1" style="enable-background:new -205 83.2 430.1 430.1;" xml:space="preserve">
<g>
	<path id="Facebook_Places" d="M151.2,190.2c-1.5-5.7-4.6-11.9-6.9-17.2C116.7,106.9,56.6,83.2,8.1,83.2
		c-65,0-136.6,43.6-146.1,133.4v18.4c0,0.8,0.3,7.6,0.6,11.1c5.4,42.8,39.1,88.3,64.4,131.1c27.1,45.9,55.3,91,83.2,136.1
		c17.2-29.4,34.4-59.3,51.2-87.9c4.6-8.4,9.9-16.8,14.5-24.9c3.1-5.3,8.9-10.7,11.6-15.7c27.1-49.7,70.8-99.8,70.8-149.1v-20.3
		C158.2,210.1,151.6,191.4,151.2,190.2z M9.2,282.4c-19.1,0-40-9.6-50.3-35.9c-1.5-4.2-1.4-12.6-1.4-13.4v-11.9
		c0-33.6,28.6-48.9,53.4-48.9c30.6,0,54.2,24.5,54.2,55.1C65.1,257.9,39.8,282.4,9.2,282.4z"/>
</g>
</svg>
