<?xml version="1.0" encoding="utf-8"?>
<!-- Generator: Adobe Illustrator 19.0.0, SVG Export Plug-In . SVG Version: 6.00 Build 0)  -->
<svg version="1.1" id="Warstwa_1" xmlns="http://www.w3.org/2000/svg" xmlns:xlink="http://www.w3.org/1999/xlink" x="0px" y="0px"
	 viewBox="-164 42.3 512 512" style="enable-background:new -164 42.3 512 512;" xml:space="preserve">
<g>
	<path d="M331,508.5L213.2,390.7c29.2-35.6,46.8-81.2,46.8-130.9c0-114-92.5-206.5-206.5-206.5C-60.6,53.3-153,145.8-153,259.8
		s92.4,206.5,206.5,206.5c49.7,0,95.2-17.5,130.8-46.7l117.8,117.7c8,8,20.9,8,28.9,0C339,529.4,339,516.4,331,508.5z M53.5,425.2
		C-37.8,425.2-112,351-112,259.8S-37.8,94.3,53.5,94.3c91.2,0,165.5,74.3,165.5,165.5S144.7,425.2,53.5,425.2z"/>
</g>
</svg>
