<!-- Generated by IcoMoon.io -->
<svg version="1.1" xmlns="http://www.w3.org/2000/svg" width="512" height="512" viewBox="0 0 512 512">
<title>kk-03</title>
<path fill="#bdbdbd" d="M485.139 408.339c-1.329 0.778-2.796 1.162-4.234 1.162-2.865 0-5.661-1.487-7.217-4.135-2.344-3.978-1.005-9.098 2.974-11.432 7.67-4.49 12.426-12.771 12.426-21.632v-309.101c0-13.814-11.264-25.058-25.108-25.058h-234.319c-4.618 0-8.369-3.742-8.369-8.36 0-4.608 3.751-8.35 8.369-8.35h234.319c23.070 0 41.846 18.737 41.846 41.767v309.101c0 14.769-7.926 28.563-20.687 36.037zM212.923 405.721h-8.369v25.068c0 13.814-11.264 25.058-25.098 25.058h-100.421c-13.844 0-25.108-11.245-25.108-25.058v-25.068h-8.369c-24.241 0-41.846-17.565-41.846-41.767v-300.751c0-14.71 8.005-28.514 20.904-36.008 3.978-2.314 9.098-0.965 11.441 3.023 2.324 3.988 0.965 9.107-3.023 11.421-7.877 4.588-12.584 12.642-12.584 21.563v300.751c0 14.986 10.093 25.058 25.108 25.058h16.738c4.618 0 8.369 3.741 8.369 8.36v33.418c0 4.598 3.751 8.349 8.369 8.349h100.421c4.608 0 8.359-3.752 8.359-8.349v-401.005c0-4.598-3.751-8.349-8.359-8.349h-100.431c-4.608 0-8.359 3.752-8.359 8.349v334.168c0 4.608-3.752 8.349-8.369 8.349s-8.369-3.741-8.369-8.349v-334.168c0-13.814 11.264-25.058 25.108-25.058h100.421c13.834 0 25.098 11.245 25.098 25.058v359.227h8.369c4.618 0 8.369 3.741 8.369 8.36 0 4.608-3.751 8.349-8.369 8.349zM430.503 305.477h-33.467c-4.627 0-8.369-3.752-8.369-8.36s3.741-8.349 8.369-8.349h33.467c4.618 0 8.369 3.741 8.369 8.349s-3.752 8.36-8.369 8.36zM430.503 255.35h-33.467c-4.627 0-8.369-3.742-8.369-8.359 0-4.608 3.741-8.35 8.369-8.35h33.467c4.618 0 8.369 3.742 8.369 8.35 0 4.618-3.752 8.359-8.369 8.359zM430.503 205.224h-33.467c-4.627 0-8.369-3.742-8.369-8.35 0-4.618 3.741-8.359 8.369-8.359h33.467c4.618 0 8.369 3.742 8.369 8.359 0 4.608-3.752 8.35-8.369 8.35zM330.082 188.514h33.477c4.618 0 8.369 3.742 8.369 8.359 0 4.608-3.752 8.35-8.369 8.35h-33.477c-4.618 0-8.369-3.742-8.369-8.35 0-4.618 3.752-8.359 8.369-8.359zM330.082 288.768h33.477c4.618 0 8.369 3.741 8.369 8.349s-3.752 8.36-8.369 8.36h-33.477c-4.618 0-8.369-3.752-8.369-8.36s3.752-8.349 8.369-8.349zM330.082 238.641h33.477c4.618 0 8.369 3.742 8.369 8.35 0 4.618-3.752 8.359-8.369 8.359h-33.477c-4.618 0-8.369-3.742-8.369-8.359 0-4.608 3.752-8.35 8.369-8.35zM254.769 96.621c0-4.608 3.752-8.35 8.369-8.35h167.365c4.618 0 8.369 3.742 8.369 8.35v50.127c0 4.608-3.752 8.35-8.369 8.35h-167.365c-4.618 0-8.369-3.742-8.369-8.35v-50.127zM271.507 138.387h150.627v-33.408h-150.626v33.408zM263.139 188.514h33.467c4.627 0 8.369 3.742 8.369 8.359 0 4.608-3.741 8.35-8.369 8.35h-33.467c-4.618 0-8.369-3.742-8.369-8.35 0-4.618 3.751-8.359 8.369-8.359zM263.139 288.768h33.467c4.627 0 8.369 3.741 8.369 8.349 0 4.618-3.741 8.36-8.369 8.36h-33.467c-4.618 0-8.369-3.741-8.369-8.36 0-4.608 3.751-8.349 8.369-8.349zM263.139 238.641h33.467c4.627 0 8.369 3.742 8.369 8.35 0 4.618-3.741 8.359-8.369 8.359h-33.467c-4.618 0-8.369-3.742-8.369-8.359 0-4.608 3.751-8.35 8.369-8.35zM229.661 355.594h234.319c4.618 0 8.369 3.752 8.369 8.36s-3.752 8.349-8.369 8.349h-234.319c-4.618 0-8.369-3.741-8.369-8.349s3.751-8.36 8.369-8.36zM296.615 439.139h83.683c4.618 0 8.369 3.741 8.369 8.349 0 4.618-3.752 8.36-8.369 8.36h-83.683c-4.627 0-8.379-3.741-8.369-8.36 0-4.608 3.741-8.349 8.369-8.349zM296.615 405.721h100.421c4.618 0 8.36 3.741 8.36 8.36 0 4.608-3.741 8.349-8.36 8.349h-100.421c-4.627 0-8.369-3.741-8.369-8.349 0-4.618 3.741-8.36 8.369-8.36zM246.4 389.012c4.618 0 8.369 3.731 8.369 8.36v91.894h184.103v-91.894c0-4.627 3.752-8.36 8.369-8.36s8.369 3.741 8.369 8.36v100.243c0 4.608-3.752 8.36-8.369 8.36h-200.842c-4.618 0-8.369-3.752-8.369-8.36v-100.243c0-4.627 3.751-8.36 8.369-8.36z"></path>
</svg>
